<svg width="19" height="20" viewBox="0 0 19 20" fill="none" xmlns="http://www.w3.org/2000/svg">
<path fill-rule="evenodd" clip-rule="evenodd" d="M2.4978 12.1235C2.4978 11.7446 2.8293 11.4131 3.20816 11.4131H15.4736C15.8525 11.4131 16.184 11.7446 16.184 12.1235C16.184 12.5024 15.8525 12.8339 15.4736 12.8339H3.20816C2.8293 12.8339 2.4978 12.5024 2.4978 12.1235Z" fill="#979797"/>
<path fill-rule="evenodd" clip-rule="evenodd" d="M7.18581 0C7.56467 0 7.89617 0.331499 7.89617 0.710356V4.87774C7.89617 5.54074 7.70671 6.20374 7.32785 6.77203L1.7871 15.5805C0.982026 16.8591 1.88182 18.5166 3.39725 18.5166H15.2365C16.7519 18.5166 17.6517 16.8591 16.8467 15.5805L11.3059 6.77203C10.927 6.20374 10.7376 5.54074 10.7376 4.87774V0.710356C10.7376 0.331499 11.0691 0 11.4479 0C11.8268 0 12.1583 0.331499 12.1583 0.710356V4.87774C12.1583 5.30396 12.253 5.68282 12.4898 6.01432L18.0306 14.8227C19.4513 17.0485 17.8412 19.9373 15.1892 19.9373H3.3499C0.697907 19.9373 -0.864876 17.0485 0.508479 14.8227L6.04923 6.01432C6.28602 5.68282 6.38071 5.2566 6.38071 4.87774V0.710356C6.38071 0.331499 6.71221 0 7.09106 0H7.18581Z" fill="#979797"/>
</svg>
