<svg width="19" height="19" viewBox="0 0 19 19" fill="none" xmlns="http://www.w3.org/2000/svg">
<path fill-rule="evenodd" clip-rule="evenodd" d="M3.06639 2.84142C5.19745 0.947141 7.94415 0 10.5961 0C13.2481 0 15.0951 0.710344 16.7526 2.17841C19.1204 4.30948 19.1204 7.76657 16.7526 9.89764L15.4266 11.0816C15.2371 11.271 15.1898 11.4131 15.1898 11.5078C15.1898 11.6025 15.2371 11.7919 15.4266 11.934C15.5686 12.0287 15.616 12.076 15.6634 12.1234C15.7107 12.1234 15.8528 12.1708 16.0896 12.2181H16.1369C16.4684 12.2655 17.0841 12.3602 17.5103 12.7864C17.9365 13.1653 18.1733 13.7809 18.1733 14.3018C18.1733 14.8701 17.9839 15.4857 17.5103 15.9593C15.616 17.6168 13.0114 18.4693 10.4067 18.4693H10.312C7.70737 18.4693 5.05537 17.5695 3.01901 15.8173C-1.00634 12.2655 -1.00634 6.39321 3.01901 2.79408L3.06639 2.84142ZM10.5961 1.42071C8.27565 1.42071 5.86045 2.27316 4.01353 3.93066C0.60382 6.91415 0.60382 11.7919 4.01353 14.8228C5.71838 16.3382 8.03886 17.0959 10.3594 17.0959H10.4541C12.7746 17.0959 15.0477 16.3382 16.6105 14.9648C16.7526 14.8701 16.7999 14.6807 16.7999 14.4439C16.7999 14.2071 16.7052 14.0177 16.6105 13.923C16.5158 13.8283 16.3264 13.7809 15.9001 13.6862C15.616 13.6862 15.3792 13.5915 15.1424 13.4968C14.9057 13.402 14.7162 13.26 14.5268 13.0705C14.1006 12.6917 13.8164 12.1234 13.8164 11.5551C13.8164 10.9868 14.1006 10.4659 14.5268 10.0397L15.8528 8.85575C17.605 7.29296 17.605 4.83043 15.8528 3.26765C14.4794 2.08372 12.6325 1.42071 10.6435 1.42071H10.5961Z" fill="#979797"/>
<path d="M4.29766 8.52441C5.10274 8.52441 5.71838 7.90877 5.71838 7.1037C5.71838 6.29863 5.10274 5.68298 4.29766 5.68298C3.49259 5.68298 2.87695 6.29863 2.87695 7.1037C2.87695 7.90877 3.49259 8.52441 4.29766 8.52441Z" fill="#979797"/>
<path d="M4.62921 13.118C5.43428 13.118 6.04992 12.5023 6.04992 11.6973C6.04992 10.8922 5.43428 10.2766 4.62921 10.2766C3.82414 10.2766 3.2085 10.8922 3.2085 11.6973C3.2085 12.5023 3.87149 13.118 4.62921 13.118Z" fill="#979797"/>
<path d="M7.84942 5.68285C8.65449 5.68285 9.27013 5.06721 9.27013 4.26214C9.27013 3.45707 8.65449 2.84143 7.84942 2.84143C7.04435 2.84143 6.42871 3.45707 6.42871 4.26214C6.42871 5.06721 7.04435 5.68285 7.84942 5.68285Z" fill="#979797"/>
<path d="M9.27047 16.2909C10.4544 16.2909 11.4015 15.3437 11.4015 14.1598C11.4015 12.9759 10.4544 12.0287 9.27047 12.0287C8.08655 12.0287 7.1394 12.9759 7.1394 14.1598C7.1394 15.3437 8.08655 16.2909 9.27047 16.2909Z" fill="#979797"/>
<path d="M12.4905 5.68285C13.2482 5.68285 13.9112 5.06721 13.9112 4.26214C13.9112 3.45707 13.2482 2.84143 12.4905 2.84143C11.7328 2.84143 11.0698 3.45707 11.0698 4.26214C11.0698 5.06721 11.6855 5.68285 12.4905 5.68285Z" fill="#979797"/>
</svg>
