<svg width="16" height="22" viewBox="0 0 16 22" fill="none" xmlns="http://www.w3.org/2000/svg">
<path fill-rule="evenodd" clip-rule="evenodd" d="M2.84142 1.42071C2.03635 1.42071 1.42071 2.03635 1.42071 2.84142V18.5166C1.42071 19.3217 2.03635 19.9373 2.84142 19.9373H12.7864C13.5915 19.9373 14.2071 19.3217 14.2071 18.5166V2.84142C14.2071 2.03635 13.5915 1.42071 12.7864 1.42071H2.84142ZM0 2.84142C0 1.27864 1.27864 0 2.84142 0H12.7864C14.3492 0 15.6278 1.27864 15.6278 2.84142V18.5166C15.6278 20.0794 14.3492 21.358 12.7864 21.358H2.84142C1.27864 21.358 0 20.0794 0 18.5166V2.84142Z" fill="#979797"/>
<path fill-rule="evenodd" clip-rule="evenodd" d="M4.97266 2.84146C4.97266 2.4626 5.30416 2.1311 5.68301 2.1311H9.94515C10.324 2.1311 10.6555 2.4626 10.6555 2.84146C10.6555 3.22032 10.324 3.55182 9.94515 3.55182H5.68301C5.30416 3.55182 4.97266 3.22032 4.97266 2.84146Z" fill="#979797"/>
</svg>
