<svg width="23" height="23" viewBox="0 0 23 23" fill="none" xmlns="http://www.w3.org/2000/svg">
<path d="M9.28244 22.7787C9.14037 22.7787 8.99828 22.7788 8.85621 22.684C8.57207 22.542 8.38267 22.3525 8.28795 22.0684L6.39367 17.1433L1.46852 15.249C1.18438 15.1543 0.947583 14.9175 0.805512 14.586C0.616084 14.0177 0.900238 13.3547 1.46852 13.1653L6.39367 11.271L8.28795 6.34586C8.38267 6.06172 8.61942 5.82492 8.90356 5.68285C9.1877 5.58814 9.47187 5.58814 9.75601 5.68285C10.0402 5.82492 10.2296 6.01437 10.3243 6.29852L12.2186 11.2237L17.1437 13.1179C17.4278 13.2127 17.6646 13.4494 17.7594 13.7809C17.9961 14.3492 17.712 15.0122 17.1437 15.2016L12.2186 17.0959L10.3243 22.021C10.2296 22.3052 9.99281 22.542 9.70866 22.684C9.56659 22.7314 9.4245 22.7787 9.32978 22.7787H9.28244ZM2.69979 14.2545L6.96193 15.912C7.24607 16.0067 7.48288 16.2435 7.5776 16.575L9.23509 20.8371L10.8926 16.575C10.9873 16.2908 11.2241 16.054 11.5082 15.912L15.7703 14.2545L11.5082 12.597C11.2241 12.5023 10.9873 12.2655 10.8926 11.934L9.23509 7.67188L7.5776 11.934C7.48288 12.2182 7.24607 12.4549 6.96193 12.597L2.69979 14.2545Z" fill="#979797"/>
<path fill-rule="evenodd" clip-rule="evenodd" d="M3.9306 6.10352e-05C4.21474 6.10352e-05 4.4989 0.189489 4.59361 0.473632L5.35131 2.51001L7.38769 3.26771C7.67183 3.36242 7.86126 3.64658 7.86126 3.93072C7.86126 4.21486 7.67183 4.49902 7.38769 4.59373L5.35131 5.35143L4.59361 7.38775C4.4989 7.67189 4.21474 7.86132 3.9306 7.86132C3.64646 7.86132 3.36231 7.67189 3.26759 7.38775L2.50989 5.35143L0.473571 4.59373C0.189428 4.49902 0 4.21486 0 3.93072C0 3.64658 0.189428 3.36242 0.473571 3.26771L2.50989 2.51001L3.26759 0.473632C3.36231 0.189489 3.64646 6.10352e-05 3.9306 6.10352e-05ZM3.9306 2.69945L3.69382 3.26771C3.5991 3.45714 3.45702 3.59922 3.26759 3.69393L2.69933 3.93072L3.26759 4.16751C3.45702 4.26222 3.5991 4.4043 3.69382 4.59373L3.9306 5.16199L4.16739 4.59373C4.2621 4.4043 4.40418 4.26222 4.59361 4.16751L5.16187 3.93072L4.59361 3.69393C4.40418 3.59922 4.2621 3.45714 4.16739 3.26771L3.9306 2.69945Z" fill="#979797"/>
<path fill-rule="evenodd" clip-rule="evenodd" d="M17.8069 1.4682C18.0911 1.4682 18.3752 1.65763 18.47 1.94177L19.5591 4.73585L22.3532 5.82509C22.6374 5.9198 22.8268 6.20395 22.8268 6.4881C22.8268 6.77224 22.6374 7.05633 22.3532 7.15105L19.5591 8.24028L18.47 11.0344C18.3752 11.3185 18.0911 11.5079 17.8069 11.5079C17.5228 11.5079 17.2386 11.3185 17.1439 11.0344L16.0547 8.24028L13.2607 7.15105C12.9765 7.05633 12.7871 6.77224 12.7871 6.4881C12.7871 6.20395 12.9765 5.9198 13.2607 5.82509L16.0547 4.73585L17.1439 1.94177C17.2386 1.65763 17.5228 1.4682 17.8069 1.4682ZM17.8069 4.12024L17.286 5.49355C17.1913 5.68298 17.0492 5.82506 16.8598 5.91978L15.4864 6.44069L16.8598 6.96167C17.0492 7.05638 17.1913 7.19841 17.286 7.38783L17.8069 8.7612L18.3279 7.38783C18.4226 7.19841 18.5647 7.05638 18.7541 6.96167L20.1275 6.44069L18.7541 5.91978C18.5647 5.82506 18.4226 5.68298 18.3279 5.49355L17.8069 4.12024Z" fill="#979797"/>
</svg>
