<svg width="22" height="16" viewBox="0 0 22 16" fill="none" xmlns="http://www.w3.org/2000/svg">
<path fill-rule="evenodd" clip-rule="evenodd" d="M6.91413 2.39203C7.19828 2.67617 7.15092 3.14973 6.86677 3.38652L1.79956 7.83809L6.86677 12.2897C7.15092 12.5265 7.19828 13 6.91413 13.2842C6.67735 13.5683 6.20377 13.6156 5.91963 13.3315L0.236785 8.35901C0.0947141 8.21694 0 8.02752 0 7.83809C0 7.64867 0.0947141 7.45925 0.236785 7.31718L5.91963 2.34469C6.20377 2.1079 6.67735 2.10789 6.91413 2.39203Z" fill="#979797"/>
<path fill-rule="evenodd" clip-rule="evenodd" d="M14.3965 2.39194C14.6333 2.1078 15.1068 2.06045 15.391 2.34459L21.0738 7.31708C21.2159 7.45916 21.3106 7.64857 21.3106 7.838C21.3106 8.02743 21.2159 8.21685 21.0738 8.35892L15.391 13.3314C15.1068 13.5682 14.6333 13.5682 14.3965 13.2841C14.1123 12.9999 14.1597 12.5264 14.4438 12.2896L19.511 7.838L14.4438 3.38643C14.1597 3.14964 14.1123 2.67608 14.3965 2.39194Z" fill="#979797"/>
<path fill-rule="evenodd" clip-rule="evenodd" d="M12.9758 0.0241364C13.3547 0.118851 13.5441 0.545076 13.4494 0.923932L9.18728 15.1784C9.09257 15.5573 8.66636 15.7467 8.2875 15.652C7.90865 15.5573 7.71922 15.131 7.81393 14.7522L12.0761 0.497707C12.1708 0.118851 12.597 -0.0705777 12.9758 0.0241364Z" fill="#979797"/>
</svg>
