<svg width="20" height="20" viewBox="0 0 20 20" fill="none" xmlns="http://www.w3.org/2000/svg">
<path d="M11.9341 5.05368C11.7447 5.24311 11.6499 5.47989 11.6499 5.71667C11.6499 5.95346 11.7447 6.19024 11.9341 6.37967L13.4495 7.8951C13.639 8.08453 13.8757 8.17924 14.1125 8.17924C14.3493 8.17924 14.5861 8.08453 14.7755 7.8951L18.3747 4.29596C18.8482 5.33782 18.9903 6.52175 18.8009 7.65832C18.6114 8.79489 18.0432 9.83674 17.2381 10.6418C16.433 11.4469 15.3912 12.0152 14.2546 12.2046C13.118 12.394 11.9341 12.252 10.8922 11.7784L4.35697 18.3137C3.97811 18.6925 3.45718 18.8819 2.93625 18.8819C2.41533 18.8819 1.8944 18.6925 1.51554 18.3137C1.13669 17.9348 0.947266 17.4139 0.947266 16.8929C0.947266 16.372 1.13669 15.8511 1.51554 15.4722L8.05082 8.93696C7.57725 7.8951 7.43517 6.71117 7.6246 5.5746C7.81403 4.43803 8.38232 3.39618 9.18739 2.59111C9.99246 1.78604 11.0343 1.21776 12.1709 1.02833C13.3074 0.838899 14.4914 0.980968 15.5332 1.45454L11.9815 5.00632L11.9341 5.05368Z" stroke="#979797" stroke-width="1.89428" stroke-linecap="round" stroke-linejoin="round"/>
</svg>
