<svg width="764" height="304" viewBox="0 0 764 304" fill="none" xmlns="http://www.w3.org/2000/svg">
<path d="M110.149 71.5977H102.995C98.7562 71.5977 95.7092 72.5245 93.8545 74.3789C91.9998 76.2336 91.0723 79.0162 91.0723 82.7256C91.0723 85.2428 91.6022 91.1384 92.6621 100.412C93.8545 112.336 94.4502 120.086 94.4502 123.663C94.4502 131.214 92.6619 137.441 89.085 142.343C85.6404 147.245 80.3406 150.358 73.1865 151.683V152.08C80.3406 153.405 85.6404 156.519 89.085 161.421C92.6618 166.323 94.4502 172.549 94.4502 180.101C94.4502 183.678 93.8544 191.428 92.6621 203.352C91.6023 212.625 91.0723 218.587 91.0723 221.236C91.0723 224.813 91.9997 227.529 93.8545 229.384C95.7092 231.238 98.7559 232.166 102.995 232.166H110.149V263.764H95.4443C82.726 263.764 72.5906 260.385 65.0391 253.628C57.6203 246.871 53.9112 237.399 53.9111 225.211C53.9111 221.766 54.1761 217.858 54.7061 213.486C55.236 208.982 55.8317 204.676 56.4941 200.569C57.8189 191.031 58.4814 184.738 58.4814 181.69C58.4814 172.682 52.3209 167.979 40 167.581V135.983C46.6239 135.851 51.3272 134.659 54.1094 132.407C57.024 130.155 58.4814 126.776 58.4814 122.271C58.4814 119.092 57.8189 112.733 56.4941 103.194C55.8317 99.0874 55.236 94.8475 54.7061 90.4756C54.1762 85.9714 53.9111 81.9972 53.9111 78.5527C53.9111 66.3643 57.62 56.8914 65.0391 50.1348C72.5906 43.3782 82.726 40 95.4443 40H110.149V71.5977ZM355.155 40C367.873 40.0001 377.941 43.3785 385.36 50.1348C392.912 56.8914 396.688 66.3643 396.688 78.5527C396.688 81.9971 396.423 85.9714 395.894 90.4756C395.364 94.8475 394.767 99.0874 394.104 103.194C392.78 112.733 392.117 119.092 392.117 122.271C392.117 126.776 393.509 130.155 396.291 132.407C399.206 134.659 403.975 135.851 410.599 135.983V167.581C398.278 167.979 392.117 172.682 392.117 181.69C392.117 184.738 392.78 191.031 394.104 200.569C394.767 204.676 395.364 208.982 395.894 213.486C396.423 217.858 396.688 221.766 396.688 225.211C396.688 237.399 392.912 246.871 385.36 253.628C377.941 260.384 367.873 263.764 355.155 263.764H340.449V232.166H347.604C351.843 232.166 354.889 231.238 356.744 229.384C358.599 227.529 359.526 224.813 359.526 221.236C359.526 218.587 358.996 212.625 357.937 203.352C356.744 191.428 356.148 183.678 356.148 180.101C356.148 172.549 357.871 166.323 361.315 161.421C364.892 156.519 370.258 153.405 377.412 152.08V151.683C370.258 150.358 364.892 147.245 361.315 142.343C357.871 137.441 356.148 131.215 356.148 123.663C356.148 120.086 356.744 112.336 357.937 100.412C358.996 91.1384 359.526 85.2428 359.526 82.7256C359.526 79.0162 358.599 76.2336 356.744 74.3789C354.889 72.5245 351.842 71.5977 347.604 71.5977H340.449V40H355.155ZM184.77 187.068L206.827 91.2842H249.553L271.016 186.273L287.311 91.2842H329.44L295.061 231.384H247.168L227.893 145.535L208.219 231.384H160.326L126.345 91.2842H168.474L184.77 187.068Z" fill="black"/>
<path d="M612.138 207.281C612.138 202.141 613.054 197.652 614.885 193.812C616.775 189.973 619.315 187.019 622.505 184.951C625.754 182.884 629.358 181.85 633.315 181.85C636.741 181.85 639.695 182.53 642.176 183.888C644.657 185.247 646.577 187.078 647.936 189.382V182.47H665.303V232.179H647.936V225.268C646.577 227.572 644.628 229.403 642.087 230.761C639.606 232.12 636.682 232.799 633.315 232.799C629.358 232.799 625.754 231.766 622.505 229.698C619.315 227.631 616.775 224.677 614.885 220.837C613.054 216.939 612.138 212.42 612.138 207.281ZM647.936 207.281C647.936 204.091 647.049 201.58 645.277 199.749C643.564 197.918 641.438 197.002 638.898 197.002C636.298 197.002 634.142 197.918 632.429 199.749C630.716 201.521 629.86 204.032 629.86 207.281C629.86 210.47 630.716 213.01 632.429 214.901C634.142 216.732 636.298 217.648 638.898 217.648C641.438 217.648 643.564 216.732 645.277 214.901C647.049 213.07 647.936 210.529 647.936 207.281Z" fill="black"/>
<path d="M581.769 232.799C576.807 232.799 572.347 231.766 568.389 229.698C564.49 227.631 561.418 224.677 559.174 220.837C556.929 216.998 555.807 212.479 555.807 207.281C555.807 202.141 556.929 197.652 559.174 193.812C561.478 189.973 564.579 187.019 568.477 184.951C572.435 182.884 576.895 181.85 581.857 181.85C586.819 181.85 591.25 182.884 595.148 184.951C599.106 187.019 602.207 189.973 604.452 193.812C606.756 197.652 607.908 202.141 607.908 207.281C607.908 212.42 606.756 216.939 604.452 220.837C602.207 224.677 599.106 227.631 595.148 229.698C591.19 231.766 586.731 232.799 581.769 232.799ZM581.769 217.736C584.191 217.736 586.199 216.85 587.794 215.078C589.448 213.247 590.275 210.648 590.275 207.281C590.275 203.913 589.448 201.344 587.794 199.572C586.199 197.8 584.22 196.913 581.857 196.913C579.494 196.913 577.515 197.8 575.921 199.572C574.326 201.344 573.528 203.913 573.528 207.281C573.528 210.707 574.296 213.306 575.832 215.078C577.368 216.85 579.347 217.736 581.769 217.736Z" fill="black"/>
<path d="M548.752 166.61V232.179H531.385V166.61H548.752Z" fill="black"/>
<path d="M521.495 166.61V232.179H504.128V166.61H521.495Z" fill="black"/>
<path d="M494.244 182.47V232.179H476.788V225.091C475.311 227.335 473.273 229.167 470.674 230.584C468.075 231.943 465.092 232.622 461.725 232.622C455.936 232.622 451.358 230.732 447.991 226.951C444.683 223.112 443.029 217.913 443.029 211.356V182.47H460.307V209.141C460.307 211.977 461.046 214.221 462.522 215.875C464.058 217.47 466.067 218.268 468.548 218.268C471.088 218.268 473.096 217.47 474.573 215.875C476.05 214.221 476.788 211.977 476.788 209.141V182.47H494.244Z" fill="black"/>
<path d="M707.488 102.243C709.437 99.4072 711.8 97.1625 714.576 95.5085C717.353 93.8545 720.336 93.0275 723.526 93.0275V111.546H718.652C714.872 111.546 712.066 112.285 710.234 113.762C708.403 115.238 707.488 117.808 707.488 121.47V143.179H690.121V93.4705H707.488V102.243Z" fill="black"/>
<path d="M683.013 117.749C683.013 119.108 682.924 120.466 682.747 121.825H649.874C650.051 124.542 650.79 126.58 652.089 127.939C653.448 129.238 655.161 129.888 657.228 129.888C660.123 129.888 662.19 128.588 663.431 125.989H681.95C681.182 129.415 679.675 132.487 677.431 135.205C675.245 137.863 672.469 139.96 669.102 141.496C665.735 143.031 662.013 143.799 657.937 143.799C653.034 143.799 648.663 142.766 644.823 140.698C641.043 138.631 638.06 135.677 635.874 131.837C633.747 127.998 632.684 123.479 632.684 118.281C632.684 113.082 633.747 108.593 635.874 104.812C638.001 100.973 640.954 98.019 644.735 95.9515C648.574 93.884 652.975 92.8502 657.937 92.8502C662.84 92.8502 667.182 93.8544 670.962 95.8629C674.743 97.8713 677.697 100.766 679.823 104.546C681.95 108.268 683.013 112.669 683.013 117.749ZM665.292 113.407C665.292 111.281 664.583 109.627 663.165 108.445C661.747 107.205 659.975 106.584 657.849 106.584C655.722 106.584 653.979 107.175 652.621 108.356C651.262 109.479 650.376 111.162 649.963 113.407H665.292Z" fill="black"/>
<path d="M592.661 100.382C594.02 98.019 595.94 96.1877 598.421 94.8882C600.902 93.5295 603.826 92.8502 607.193 92.8502C611.151 92.8502 614.725 93.8839 617.915 95.9514C621.163 98.0189 623.704 100.973 625.535 104.812C627.425 108.652 628.37 113.141 628.37 118.28C628.37 123.42 627.425 127.939 625.535 131.837C623.704 135.677 621.163 138.631 617.915 140.698C614.725 142.766 611.151 143.799 607.193 143.799C603.826 143.799 600.902 143.15 598.421 141.85C595.94 140.491 594.02 138.631 592.661 136.268V143.179H575.294V77.6097H592.661V100.382ZM610.737 118.28C610.737 115.032 609.851 112.521 608.079 110.749C606.366 108.918 604.239 108.002 601.699 108.002C599.159 108.002 597.003 108.918 595.231 110.749C593.518 112.58 592.661 115.091 592.661 118.28C592.661 121.529 593.518 124.069 595.231 125.901C597.003 127.732 599.159 128.648 601.699 128.648C604.239 128.648 606.366 127.732 608.079 125.901C609.851 124.01 610.737 121.47 610.737 118.28Z" fill="black"/>
<path d="M565.404 77.6097V143.179H548.037V77.6097H565.404Z" fill="black"/>
<path d="M529.552 88.8629C526.48 88.8629 523.999 88.0359 522.109 86.3819C520.278 84.6688 519.362 82.5423 519.362 80.0022C519.362 77.403 520.278 75.2469 522.109 73.5338C523.999 71.8208 526.48 70.9642 529.552 70.9642C532.565 70.9642 534.987 71.8208 536.818 73.5338C538.708 75.2469 539.653 77.403 539.653 80.0022C539.653 82.5423 538.708 84.6688 536.818 86.3819C534.987 88.0359 532.565 88.8629 529.552 88.8629ZM538.147 93.4705V143.179H520.78V93.4705H538.147Z" fill="black"/>
<path d="M515.839 93.4705L503.168 143.179H483.674L476.763 113.053L469.586 143.179H450.181L437.599 93.4705H454.877L460.459 126.432L467.814 93.4705H486.421L494.041 126.521L499.535 93.4705H515.839Z" fill="black"/>
</svg>
