<svg width="215" height="86" viewBox="0 0 215 86" fill="none" xmlns="http://www.w3.org/2000/svg">
<path d="M31.0165 20.161H29.0028C27.8092 20.161 26.9509 20.4221 26.4286 20.9442C25.9063 21.4665 25.6444 22.2502 25.6444 23.2948C25.6444 24.0037 25.7942 25.6641 26.0927 28.2752C26.4284 31.6325 26.5966 33.8149 26.5966 34.8221C26.5965 36.9485 26.0921 38.7016 25.0848 40.0819C24.1149 41.4621 22.6227 42.3387 20.6083 42.7118V42.8241C22.6226 43.1971 24.1149 44.0738 25.0848 45.4539C26.092 46.8342 26.5965 48.5875 26.5966 50.7137C26.5966 51.721 26.4284 53.9041 26.0927 57.2616C25.7942 59.8728 25.6444 61.5516 25.6444 62.2977C25.6444 63.3049 25.9063 64.0694 26.4286 64.5916C26.9509 65.1139 27.8091 65.3748 29.0028 65.3748H31.0165V74.2723H26.8759C23.2946 74.2723 20.4407 73.3213 18.3143 71.4188C16.2253 69.5162 15.1806 66.8489 15.1805 63.4168C15.1805 62.4469 15.255 61.3462 15.4042 60.1151C15.5534 58.8467 15.7216 57.6339 15.9081 56.4774C16.2811 53.7918 16.4676 52.02 16.4677 51.162C16.4677 48.6252 14.733 47.3002 11.2635 47.1883V38.2918C13.1287 38.2545 14.4528 37.9181 15.2362 37.284C16.0569 36.6499 16.4676 35.6988 16.4677 34.4305C16.4677 33.5352 16.2811 31.7444 15.9081 29.0584C15.7216 27.9021 15.5534 26.7083 15.4042 25.4774C15.255 24.209 15.1805 23.0889 15.1805 22.119C15.1806 18.6871 16.2253 16.0195 18.3143 14.117C20.4407 12.2146 23.2947 11.2635 26.8759 11.2635H31.0165V20.161ZM100.008 11.2635C103.589 11.2636 106.424 12.2148 108.513 14.117C110.639 16.0195 111.703 18.6871 111.703 22.119C111.703 23.0889 111.628 24.209 111.478 25.4774C111.329 26.7083 111.162 27.9021 110.975 29.0584C110.602 31.7444 110.416 33.5352 110.416 34.4305C110.416 35.6987 110.807 36.6499 111.591 37.284C112.411 37.9182 113.755 38.2545 115.62 38.2918V47.1883C112.151 47.3002 110.416 48.6252 110.416 51.162C110.416 52.02 110.602 53.7918 110.975 56.4774C111.162 57.6338 111.329 58.8467 111.478 60.1151C111.628 61.3462 111.703 62.4469 111.703 63.4168C111.703 66.8489 110.639 69.5162 108.513 71.4188C106.424 73.3211 103.589 74.2723 100.008 74.2723H95.8661V65.3748H97.8807C99.0745 65.3748 99.9327 65.1139 100.455 64.5916C100.977 64.0694 101.238 63.3048 101.238 62.2977C101.238 61.5516 101.089 59.8728 100.791 57.2616C100.455 53.9041 100.287 51.721 100.287 50.7137C100.287 48.5875 100.772 46.8342 101.742 45.4539C102.749 44.0738 104.26 43.1972 106.274 42.8241V42.7118C104.26 42.3387 102.749 41.4621 101.742 40.0819C100.772 38.7016 100.287 36.9484 100.287 34.8221C100.287 33.8149 100.455 31.6325 100.791 28.2752C101.089 25.6641 101.238 24.0037 101.238 23.2948C101.238 22.2502 100.977 21.4665 100.455 20.9442C99.9327 20.422 99.0744 20.161 97.8807 20.161H95.8661V11.2635H100.008ZM52.0292 52.6766L58.2401 25.7039H70.2714L76.3143 52.453L80.9032 25.7039H92.7665L83.0858 65.1551H69.5995L64.1718 40.9813L58.6317 65.1551H45.1464L35.577 25.7039H47.4403L52.0292 52.6766Z" fill="white"/>
<path d="M172.371 58.3675C172.371 56.9204 172.629 55.6562 173.145 54.575C173.677 53.4938 174.392 52.6621 175.29 52.0799C176.205 51.4977 177.22 51.2066 178.334 51.2066C179.299 51.2066 180.131 51.3979 180.83 51.7805C181.528 52.1631 182.069 52.6787 182.451 53.3275V51.3813H187.342V65.3787H182.451V63.4325C182.069 64.0812 181.52 64.5969 180.805 64.9795C180.106 65.362 179.283 65.5533 178.334 65.5533C177.22 65.5533 176.205 65.2622 175.29 64.6801C174.392 64.0979 173.677 63.2662 173.145 62.185C172.629 61.0871 172.371 59.8147 172.371 58.3675ZM182.451 58.3675C182.451 57.4693 182.202 56.7624 181.703 56.2467C181.22 55.7311 180.622 55.4732 179.906 55.4732C179.174 55.4732 178.567 55.7311 178.085 56.2467C177.603 56.7457 177.361 57.4527 177.361 58.3675C177.361 59.2657 177.603 59.981 178.085 60.5133C178.567 61.0289 179.174 61.2868 179.906 61.2868C180.622 61.2868 181.22 61.0289 181.703 60.5133C182.202 59.9976 182.451 59.2824 182.451 58.3675Z" fill="white"/>
<path d="M163.819 65.5533C162.422 65.5533 161.166 65.2622 160.052 64.6801C158.954 64.0979 158.089 63.2662 157.457 62.185C156.825 61.1038 156.509 59.8313 156.509 58.3675C156.509 56.9204 156.825 55.6562 157.457 54.575C158.106 53.4938 158.979 52.6621 160.077 52.0799C161.191 51.4977 162.447 51.2066 163.844 51.2066C165.242 51.2066 166.489 51.4977 167.587 52.0799C168.702 52.6621 169.575 53.4938 170.207 54.575C170.856 55.6562 171.18 56.9204 171.18 58.3675C171.18 59.8147 170.856 61.0871 170.207 62.185C169.575 63.2662 168.702 64.0979 167.587 64.6801C166.473 65.2622 165.217 65.5533 163.819 65.5533ZM163.819 61.3117C164.501 61.3117 165.067 61.0622 165.516 60.5632C165.982 60.0475 166.215 59.3156 166.215 58.3675C166.215 57.4194 165.982 56.6958 165.516 56.1968C165.067 55.6978 164.51 55.4483 163.844 55.4483C163.179 55.4483 162.622 55.6978 162.173 56.1968C161.724 56.6958 161.499 57.4194 161.499 58.3675C161.499 59.3323 161.715 60.0642 162.148 60.5632C162.58 61.0622 163.137 61.3117 163.819 61.3117Z" fill="white"/>
<path d="M154.522 46.9151V65.3787H149.632V46.9151H154.522Z" fill="white"/>
<path d="M146.847 46.9151V65.3787H141.957V46.9151H146.847Z" fill="white"/>
<path d="M139.173 51.3813V65.3787H134.258V63.3826C133.842 64.0147 133.268 64.5304 132.537 64.9296C131.805 65.3122 130.965 65.5034 130.017 65.5034C128.386 65.5034 127.097 64.9712 126.149 63.9066C125.218 62.8254 124.752 61.3616 124.752 59.5153V51.3813H129.617V58.8915C129.617 59.6899 129.825 60.322 130.241 60.7878C130.674 61.2369 131.239 61.4614 131.938 61.4614C132.653 61.4614 133.219 61.2369 133.634 60.7878C134.05 60.322 134.258 59.6899 134.258 58.8915V51.3813H139.173Z" fill="white"/>
<path d="M199.22 28.7901C199.769 27.9917 200.435 27.3596 201.216 26.8938C201.998 26.4281 202.838 26.1952 203.737 26.1952V31.4099H202.364C201.3 31.4099 200.51 31.6179 199.994 32.0337C199.478 32.4495 199.22 33.1731 199.22 34.2044V40.3174H194.33V26.32H199.22V28.7901Z" fill="white"/>
<path d="M192.329 33.1565C192.329 33.5391 192.304 33.9216 192.254 34.3042H182.997C183.047 35.0694 183.255 35.6432 183.621 36.0258C184.003 36.3918 184.486 36.5747 185.068 36.5747C185.883 36.5747 186.465 36.2088 186.815 35.4769H192.029C191.813 36.4417 191.389 37.3066 190.757 38.0718C190.141 38.8203 189.36 39.4108 188.411 39.8433C187.463 40.2758 186.415 40.492 185.268 40.492C183.887 40.492 182.656 40.2009 181.575 39.6187C180.51 39.0365 179.67 38.2049 179.055 37.1237C178.456 36.0425 178.157 34.77 178.157 33.3062C178.157 31.8424 178.456 30.5782 179.055 29.5137C179.654 28.4325 180.485 27.6008 181.55 27.0186C182.631 26.4364 183.87 26.1453 185.268 26.1453C186.648 26.1453 187.871 26.4281 188.935 26.9936C190 27.5592 190.832 28.3743 191.43 29.4388C192.029 30.4867 192.329 31.726 192.329 33.1565ZM187.338 31.9339C187.338 31.3351 187.139 30.8693 186.74 30.5367C186.34 30.1873 185.841 30.0127 185.243 30.0127C184.644 30.0127 184.153 30.179 183.771 30.5117C183.388 30.8277 183.138 31.3018 183.022 31.9339H187.338Z" fill="white"/>
<path d="M166.887 28.2661C167.269 27.6008 167.81 27.0851 168.508 26.7192C169.207 26.3366 170.03 26.1453 170.979 26.1453C172.093 26.1453 173.099 26.4364 173.998 27.0186C174.913 27.6008 175.628 28.4325 176.143 29.5137C176.676 30.5949 176.942 31.859 176.942 33.3062C176.942 34.7533 176.676 36.0258 176.143 37.1237C175.628 38.2049 174.913 39.0365 173.998 39.6187C173.099 40.2009 172.093 40.492 170.979 40.492C170.03 40.492 169.207 40.309 168.508 39.9431C167.81 39.5605 167.269 39.0365 166.887 38.3712V40.3174H161.996V21.8538H166.887V28.2661ZM171.977 33.3062C171.977 32.3913 171.727 31.6844 171.228 31.1854C170.746 30.6697 170.147 30.4119 169.432 30.4119C168.716 30.4119 168.109 30.6697 167.61 31.1854C167.128 31.701 166.887 32.408 166.887 33.3062C166.887 34.2211 167.128 34.9363 167.61 35.452C168.109 35.9676 168.716 36.2254 169.432 36.2254C170.147 36.2254 170.746 35.9676 171.228 35.452C171.727 34.9197 171.977 34.2044 171.977 33.3062Z" fill="white"/>
<path d="M159.211 21.8538V40.3174H154.321V21.8538H159.211Z" fill="white"/>
<path d="M149.116 25.0225C148.251 25.0225 147.552 24.7897 147.02 24.3239C146.504 23.8415 146.247 23.2427 146.247 22.5275C146.247 21.7956 146.504 21.1884 147.02 20.7061C147.552 20.2237 148.251 19.9825 149.116 19.9825C149.964 19.9825 150.646 20.2237 151.162 20.7061C151.694 21.1884 151.96 21.7956 151.96 22.5275C151.96 23.2427 151.694 23.8415 151.162 24.3239C150.646 24.7897 149.964 25.0225 149.116 25.0225ZM151.536 26.32V40.3174H146.646V26.32H151.536Z" fill="white"/>
<path d="M145.254 26.32L141.686 40.3174H136.197L134.251 31.8341L132.23 40.3174H126.766L123.223 26.32H128.088L129.66 35.6017L131.731 26.32H136.971L139.117 35.6266L140.663 26.32H145.254Z" fill="white"/>
</svg>
