<svg width="74" height="45" viewBox="0 0 74 45" fill="none" xmlns="http://www.w3.org/2000/svg">
<path d="M13.873 6.24902H12.458C11.6198 6.24908 11.0171 6.43211 10.6504 6.79883C10.2836 7.16564 10.1006 7.71658 10.1006 8.4502C10.1007 8.94825 10.2055 10.1139 10.415 11.9473C10.6508 14.3053 10.7686 15.8385 10.7686 16.5459C10.7685 18.0393 10.4144 19.2708 9.70703 20.2402C9.02585 21.2094 7.97805 21.8249 6.56348 22.0869V22.166C7.97804 22.428 9.02585 23.0435 9.70703 24.0127C10.4144 24.9821 10.7685 26.2137 10.7686 27.707C10.7686 28.4144 10.6508 29.9476 10.415 32.3057C10.2054 34.1396 10.1006 35.3188 10.1006 35.8428C10.1006 36.5501 10.2836 37.0873 10.6504 37.4541C11.0171 37.8208 11.6198 38.0038 12.458 38.0039H13.873V44.2529H10.9648C8.44983 44.2529 6.44552 43.585 4.95215 42.249C3.48498 40.9129 2.75105 39.0392 2.75098 36.6289C2.75098 35.9477 2.8034 35.1742 2.9082 34.3096C3.013 33.4188 3.13073 32.567 3.26172 31.7549C3.5237 29.8686 3.65527 28.6241 3.65527 28.0215C3.65521 26.2399 2.43659 25.31 0 25.2314V18.9824C1.30972 18.9562 2.23977 18.7206 2.79004 18.2754C3.36645 17.83 3.65527 17.1613 3.65527 16.2705C3.65526 15.6417 3.52368 14.3842 3.26172 12.498C3.13072 11.6858 3.01301 10.847 2.9082 9.98242C2.80341 9.09162 2.75098 8.30522 2.75098 7.62402C2.75106 5.21375 3.48499 3.34007 4.95215 2.00391C6.44552 0.667909 8.44984 2.358e-05 10.9648 0H13.873V6.24902ZM62.3271 0C64.8422 0 66.8336 0.667854 68.3008 2.00391C69.7941 3.34007 70.5409 5.21375 70.541 7.62402C70.541 8.30523 70.4886 9.09162 70.3838 9.98242C70.279 10.847 70.1613 11.6858 70.0303 12.498C69.7683 14.3842 69.6367 15.6417 69.6367 16.2705C69.6367 17.1613 69.9127 17.83 70.4629 18.2754C71.0393 18.7206 71.9824 18.9562 73.292 18.9824V25.2314C70.8555 25.3101 69.6368 26.24 69.6367 28.0215C69.6367 28.6241 69.7683 29.8686 70.0303 31.7549C70.1613 32.567 70.279 33.4188 70.3838 34.3096C70.4886 35.1742 70.541 35.9477 70.541 36.6289C70.5409 39.0392 69.7941 40.9129 68.3008 42.249C66.8336 43.5851 64.8423 44.2529 62.3271 44.2529H59.4189V38.0039H60.834C61.6722 38.0039 62.2748 37.8208 62.6416 37.4541C63.0084 37.0873 63.1914 36.5501 63.1914 35.8428C63.1914 35.3188 63.0865 34.1396 62.877 32.3057C62.6411 29.9476 62.5234 28.4144 62.5234 27.707C62.5235 26.2137 62.8647 24.9821 63.5459 24.0127C64.2533 23.0436 65.314 22.428 66.7285 22.166V22.0869C65.314 21.8249 64.2533 21.2094 63.5459 20.2402C62.8647 19.2708 62.5235 18.0393 62.5234 16.5459C62.5234 15.8385 62.6411 14.3053 62.877 11.9473C63.0865 10.1139 63.1913 8.94825 63.1914 8.4502C63.1914 7.71658 63.0084 7.16564 62.6416 6.79883C62.2748 6.43213 61.6722 6.24906 60.834 6.24902H59.4189V0H62.3271ZM28.6309 29.085L32.9932 10.1426H41.4424L45.6875 28.9277L48.9102 10.1426H57.2412L50.4424 37.8496H40.9707L37.1592 20.8711L33.2676 37.8496H23.7969L17.0762 10.1426H25.4082L28.6309 29.085Z" fill="white"/>
</svg>
